#!OML:ASF E:/inclinewalkrobotboard/Project1/Captureday1/Session1/subject1.ASF
:FULLY-SPECIFIED
:DEGREES
288
root 0 0 0 1.5611662572994818 -25.826834220882446 -0.8908252435112352
lowerback 17.19836186067785 1.1376253102210285 -0.13995833885918363
upperback 4.659622428481059 1.1900253801306722 0.06059671114486265
thorax -4.602283827835136 0.5531932095900253 -0.09792447985716984
lowerneck -5.767953244926784 -5.744088897109009 -7.352584256467981
upperneck -3.0326560088058834 -7.4043478839135926 10.30440122929994
head 0.6464215702854865 -3.6294597199035588 4.088857349994456
rclavicle -3.3994070663573585E-15 4.320256048340082E-17
rhumerus -8.781382960775392 -3.4978003646203657 -69.47838331211868
rradius 9.07996478321391
rwrist 43.56787292488812
rhand -5.84005191877494 20.75208887108653
rfingers 7.125020000000036
rthumb 19.94558753075148 -8.94544018617059
lclavicle 2.6389276357860866E-16 -9.026686610028915E-17
lhumerus 19.728717142787396 -31.724490519747548 68.59966450397965
lradius 125.22307614026786
lwrist 54.76361321994418
lhand -27.664795663567524 42.94201909925249
lfingers 7.142550743054115
lthumb -0.9228541576013871 52.74736098679596
rfemur -27.411051350639035 3.23941709065796 12.322144230626181
rtibia 54.55361327641321
rfoot -7.4578504915593005 -12.410926947157604
rtoes -1.866068710171839
lfemur -21.50766719633361 -0.8201722030230187 -11.459171176360133
ltibia 47.09969230982567
lfoot -8.877289559194455 3.0127753948481972
ltoes -7.604298705441652
289
root 0 0 0 1.495332721988912 -26.041795301874792 -0.8306335757693797
lowerback 17.18820470172129 1.1121473609033707 -0.12337593954414316
upperback 4.6413679888741886 1.159472506422687 0.08385223964056177
thorax -4.614591097481419 0.5379145187740662 -0.07970015615594694
lowerneck -5.84049891712169 -5.697871497136024 -7.314426168750317
upperneck -3.04213235179229 -7.3354692275355005 10.225882258269781
head 0.6467492862974353 -3.5971730895093663 4.060761797767806
rclavicle -3.3997033680324206E-15 4.5072297611738096E-17
rhumerus -8.80103717183668 -3.4520028289065827 -69.50095637774308
rradius 9.127937668701435
rwrist 43.52926346834711
rhand -5.84890037224428 20.72840743851529
rfingers 7.125020000000036
rthumb 19.93702811996814 -8.968365141302424
lclavicle 2.559495101328527E-16 -9.110310464579591E-17
lhumerus 19.64942055295104 -31.716167999178765 68.63756144263868
lradius 125.1194670933804
lwrist 54.659916987023095
lhand -27.628858859303975 42.91496129460192
lfingers 7.142448018766044
lthumb -0.8885896584844168 52.763875469529935
rfemur -27.409847995895756 3.2595345379271192 12.315063540092186
rtibia 54.54288282817305
rfoot -7.430194923750149 -12.374263436354633
rtoes -1.8647053818931005
lfemur -21.48983446935383 -0.884784332926833 -11.444430695316585
ltibia 46.98748085070767
lfoot -8.802644630977001 3.005209810309994
ltoes -7.571630320145277
290
root 0 0 0 1.4301210604348298 -26.26716833785165 -0.7678694763764893
lowerback 17.181119519633977 1.0875522902115713 -0.1079460896579938
upperback 4.625845421915965 1.12976726811805 0.10581312624207106
thorax -4.625746222470416 0.5230378286984749 -0.06226985546003044
lowerneck -5.905703947085209 -5.650528562043881 -7.277445716295651
upperneck -3.056060582907035 -7.265217386199527 10.149236241876428
head 0.6445397852153372 -3.5643757409765833 4.033787868429925
rclavicle -3.400237028812604E-15 4.693797571368093E-17
rhumerus -8.814105029730202 -3.4113753345721545 -69.5193879112421
rradius 9.175321952740013
rwrist 43.49182683858397
rhand -5.859067820106013 20.704767988935995
rfingers 7.125020000000036
rthumb 19.92723724163541 -8.991349699535778
lclavicle 2.4738102831027444E-16 -9.109488439421002E-17
lhumerus 19.57318965070228 -31.713872023537732 68.67631186118886
lradius 125.02821451564836
lwrist 54.565804561707125
lhand -27.594221932740183 42.89084987390617
lfingers 7.142355594898034
lthumb -0.8555259532674917 52.77880749926624
rfemur -27.41422346372528 3.2803969688791117 12.304061246428375
rtibia 54.53400180700318
rfoot -7.407116657158891 -12.338965723338308
rtoes -1.8689937756075614
lfemur -21.506794238706096 -0.9237347428081626 -11.427716509123918
ltibia 46.94770507106037
lfoot -8.73305351187517 2.9762257575806492
ltoes -7.561683252792717
291
root 0 0 0 1.3642295094393 -26.504443471012795 -0.702343660407365
lowerback 17.175985066447325 1.0634343674808655 -0.09324832199233923
upperback 4.612218865440234 1.100480853077349 0.12690286790049798
thorax -4.635987721411759 0.508352576005229 -0.04537348693953802
lowerneck -5.9657281828239395 -5.601620048117184 -7.241002241980938
upperneck -3.0738042925707703 -7.1929216779127065 10.0732180846714
head 0.6402331792192104 -3.5307216842950737 4.00741661028161
rclavicle -3.4010000448804574E-15 4.8800943273703734E-17
rhumerus -8.822120462677795 -3.3749192041689327 -69.5345513174908
rradius 9.221791507608145
rwrist 43.455622016441865
rhand -5.870098438857298 20.68136337798553
rfingers 7.125020000000036
rthumb 19.91664685052612 -9.014181081256918
lclavicle 2.3853199717676857E-16 -9.04761785460369E-17
lhumerus 19.501002485466934 -31.714784565452913 68.71424244478692
lradius 124.94612139645037
lwrist 54.4796914142041
lhand -27.56137969720087 42.869023422553056
lfingers 7.142270801537022
lthumb -0.8241614478139159 52.79232605258199
rfemur -27.421437708553466 3.3008897910642636 12.291364629951644
rtibia 54.52707508319581
rfoot -7.387531674630173 -12.305049342350962
rtoes -1.8765417456137774
lfemur -21.55654579441603 -0.9393632125604288 -11.408887560949879
ltibia 46.97487942952261
lfoot -8.666950401022415 2.9268017353287803
ltoes -7.572657677216824
292
root 0 0 0 1.2962621047062126 -26.755623994952074 -0.6337954099477294
lowerback 17.171729641802308 1.039387439302426 -0.07886395200061491
upperback 4.599688250663329 1.0711804392512865 0.1475342362889711
thorax -4.64554668298252 0.49364530044239185 -0.02875779413564114
lowerneck -6.022662571287653 -5.550622484567073 -7.204452098913678
upperneck -3.094909342748652 -7.117794949355691 9.996532343459014
head 0.634197486765764 -3.4958146116351756 3.9811262763540043
rclavicle -3.401995639880166E-15 5.068056405816956E-17
rhumerus -8.825956250453004 -3.3419465707520963 -69.54699590852731
rradius 9.267475972589615
rwrist 43.420450660125894
rhand -5.881834362632048 20.65817110950109
rfingers 7.125020000000036
rthumb 19.90540364628595 -9.036865723410138
lclavicle 2.2962068058858396E-16 -8.940835881087251E-17
lhumerus 19.43277772802049 -31.717377219090718 68.75076458695263
lradius 124.8707891866525
lwrist 54.40002286835595
lhand -27.530352076148077 42.84893763257947
lfingers 7.1421910272665725
lthumb -0.794531329179506 52.80463011304941
rfemur -27.428404681753886 3.320718610179755 12.278976814004086
rtibia 54.520933423448476
rfoot -7.371482098308751 -12.27261539082245
rtoes -1.8858628740702206
lfemur -21.637533764731884 -0.933494611896676 -11.387828610881613
ltibia 47.064693541858986
lfoot -8.60311121582081 2.857745795367518
ltoes -7.603102252627416
293
root 0 0 0 1.2247529089633944 -27.02279976100346 -0.5620050555959859
lowerback 17.167176396773247 1.0150391269904426 -0.06433041963710773
upperback 4.5874203122104875 1.0414840218258727 0.16809305016597542
thorax -4.6546342699427345 0.47872707521349156 -0.01222380295655709
lowerneck -6.078634782318952 -5.49692144050015 -7.167109410931028
upperneck -3.1189244612817166 -7.038925312339659 9.917768879340306
head 0.6268038255702608 -3.459198288465283 3.9543611634406908
rclavicle -3.403217176435789E-15 5.259577839420305E-17
rhumerus -8.826168971840723 -3.311900135658826 -69.55711598805505
rradius 9.312686754345009
rwrist 43.38601389001576
rhand -5.894244239600539 20.635070071210222
rfingers 7.125020000000036
rthumb 19.893533742045694 -9.059512218776952
lclavicle 2.2076392407114128E-16 -8.799838330663187E-17
lhumerus 19.367786521632112 -31.720947370363714 68.78596866259218
lradius 124.80034861722919
lwrist 54.325277331770444
lhand -27.500852718026 42.83013214160123
lfingers 7.142113984494189
lthumb -0.7663708049076341 52.81593843098432
rfemur -27.430962983811067 3.3404456812051135 12.26908402908608
rtibia 54.51264126225824
rfoot -7.360275741996749 -12.241974417500014
rtoes -1.8961387449807114
lfemur -21.74791729000084 -0.9078332529908074 -11.364535744548942
ltibia 47.21276454013233
lfoot -8.54075366172194 2.77011988937128
ltoes -7.651595496473636
294
root 0 0 0 1.1481247601875135 -27.3080328616008 -0.4868021784416264
lowerback 17.16096462446378 0.9900428146791582 -0.04914382643950588
upperback 4.574517211992374 1.0110529424293213 0.18894119106521712
thorax -4.663430922538456 0.4634300806719405 0.004378592369391143
lowerneck -6.135847734962839 -5.439803503886104 -7.1282352216432265
upperneck -3.145280851194496 -6.95526917384108 9.835379070426434
head 0.6184684025003557 -3.420351557204045 3.9265204445130566
rclavicle -3.4046529579047587E-15 5.456202950801691E-17
rhumerus -8.823068793848021 -3.284390750356671 -69.56516187371851
rradius 9.357782479773867
rwrist 43.35200780935317
rhand -5.907369565506613 20.61191154314524
rfingers 7.125020000000036
rthumb 19.880993977492448 -9.082260246001297
lclavicle 2.1198775403632804E-16 -8.631348559372707E-17
lhumerus 19.304968915080888 -31.725211516196943 68.82029143836557
lradius 124.73318302784722
lwrist 54.25392788535224
lhand -27.47242468985723 42.81218809989528
lfingers 7.142037765116428
lthumb -0.7392473451662749 52.82648746074521
rfemur -27.42458089307743 3.3610473880336347 12.263869908665143
rtibia 54.49846364888816
rfoot -7.355797452130922 -12.213554143424037
rtoes -1.9069147558643529
lfemur -21.885213023717313 -0.8641386248402465 -11.339172022236758
ltibia 47.41408453987865
lfoot -8.479586111157179 2.665403936520269
ltoes -7.716611164860285
295
root 0 0 0 1.0646035120604442 -27.613476092051286 -0.40802782837679447
lowerback 17.151502196172288 0.9640524862634504 -0.032766614012697426
upperback 4.559994451939125 0.9795604805058253 0.21043109935000437
thorax -4.672082692887197 0.44759218501819953 0.02117347118796506
lowerneck -6.196617768377146 -5.378435995758864 -7.087026642137695
upperneck -3.173239684000743 -6.865626073465885 9.747648257105238
head 0.6096705378132485 -3.378676158586914 3.8969479663106057
rclavicle -3.4062973081722265E-15 5.659605411654663E-17
rhumerus -8.816655505556444 -3.2592903272664984 -69.57119108647824
rradius 9.403167818785292
rwrist 43.31813766981929
rhand -5.921345757235208 20.588532230258842
rfingers 7.125020000000035
rthumb 19.867651386752385 -9.105267319001431
lclavicle 2.0324082688149082E-16 -8.439184916160069E-17
lhumerus 19.243126733289646 -31.730049771016482 68.85430970938907
lradius 124.66775029135789
lwrist 54.18441905075862
lhand -27.444529056581658 42.794699541563084
lfingers 7.141960770268324
lthumb -0.7126474638989979 52.836527357534834
rfemur -27.405148564076907 3.3835254363341365 12.265252585007405
rtibia 54.47483460325187
rfoot -7.359879905170552 -12.187772391589627
rtoes -1.917901949898254
lfemur -22.046240452767318 -0.8042780420654525 -11.312074587893505
ltibia 47.66292465784354
lfoot -8.419762604091591 2.545472667290392
ltoes -7.7965001927531965
